<svg xmlns="http://www.w3.org/2000/svg" viewBox="0 0 64 64" fill="none">
  <!-- hand -->
  <path d="M20 48 Q18 44 18 38 L18 28 Q18 25 21 25 Q24 25 24 28 L24 36" stroke="#00F5FF" stroke-width="2" stroke-linecap="round"/>
  <path d="M24 36 L24 24 Q24 21 27 21 Q30 21 30 24 L30 34" stroke="#00F5FF" stroke-width="2" stroke-linecap="round"/>
  <path d="M30 34 L30 23 Q30 20 33 20 Q36 20 36 23 L36 34" stroke="#00F5FF" stroke-width="2" stroke-linecap="round"/>
  <path d="M36 34 L36 26 Q36 23 39 23 Q42 23 42 26 L42 40 Q42 50 34 52 L20 52" stroke="#00F5FF" stroke-width="2" stroke-linecap="round" stroke-linejoin="round"/>
  <!-- card floating above -->
  <rect x="26" y="8" width="20" height="14" rx="2" stroke="#FF2D78" stroke-width="1.8" fill="#FF2D78" fill-opacity="0.12"/>
  <text x="30" y="19" style="font-size:9px;fill:#FF2D78;font-family:serif;font-weight:700">A♠</text>
  <!-- sparkle -->
  <line x1="52" y1="12" x2="52" y2="18" stroke="#FFE600" stroke-width="1.4" stroke-linecap="round"/>
  <line x1="49" y1="15" x2="55" y2="15" stroke="#FFE600" stroke-width="1.4" stroke-linecap="round"/>
</svg>
