<svg xmlns="http://www.w3.org/2000/svg" viewBox="0 0 64 64" fill="none">
  <!-- head silhouette -->
  <path d="M22 52 L22 44 Q16 40 16 30 Q16 18 32 18 Q48 18 48 30 Q48 40 42 44 L42 52" stroke="#00F5FF" stroke-width="1.8" stroke-linecap="round" stroke-linejoin="round"/>
  <line x1="22" y1="52" x2="42" y2="52" stroke="#00F5FF" stroke-width="1.8" stroke-linecap="round"/>
  <!-- brain circuit lines inside -->
  <path d="M26 28 Q30 24 34 28 Q38 32 34 36 Q30 38 26 34 Q24 30 26 28" stroke="#00F5FF" stroke-width="1.2" fill="#00F5FF" fill-opacity="0.1"/>
  <!-- radiating thought waves -->
  <path d="M44 16 Q50 12 52 8" stroke="#FF2D78" stroke-width="1.4" stroke-linecap="round" opacity="0.8"/>
  <path d="M46 22 Q54 20 58 16" stroke="#FF2D78" stroke-width="1.2" stroke-linecap="round" opacity="0.6"/>
  <path d="M46 28 Q54 28 58 26" stroke="#FF2D78" stroke-width="1" stroke-linecap="round" opacity="0.4"/>
  <!-- node dots -->
  <circle cx="26" cy="28" r="2" fill="#00F5FF" opacity="0.8"/>
  <circle cx="34" cy="28" r="2" fill="#00F5FF" opacity="0.8"/>
  <circle cx="30" cy="35" r="2" fill="#00F5FF" opacity="0.8"/>
</svg>
